<svg width="169" height="35" viewBox="0 0 169 35" fill="none" xmlns="http://www.w3.org/2000/svg">
<path d="M78.4946 32.0833L80.8644 21.8385L72.9165 14.9479L83.4165 14.0365L87.4998 4.375L91.5832 14.0365L102.083 14.9479L94.1353 21.8385L96.505 32.0833L87.4998 26.651L78.4946 32.0833Z" fill="white"/>
<path d="M43.4946 32.0833L45.8644 21.8385L37.9165 14.9479L48.4165 14.0365L52.4998 4.375L56.5832 14.0365L67.0832 14.9479L59.1353 21.8385L61.505 32.0833L52.4998 26.651L43.4946 32.0833Z" fill="white"/>
<path d="M8.49463 32.0833L10.8644 21.8385L2.9165 14.9479L13.4165 14.0365L17.4998 4.375L21.5832 14.0365L32.0832 14.9479L24.1353 21.8385L26.505 32.0833L17.4998 26.651L8.49463 32.0833Z" fill="white"/>
<path d="M114.906 25.9948L119.5 23.224L124.094 26.0312L122.89 20.7812L126.937 17.2812L121.614 16.8073L119.5 11.849L117.385 16.7708L112.062 17.2448L116.109 20.7812L114.906 25.9948ZM110.495 32.0833L112.864 21.8385L104.917 14.9479L115.417 14.0365L119.5 4.375L123.583 14.0365L134.083 14.9479L126.135 21.8385L128.505 32.0833L119.5 26.651L110.495 32.0833Z" fill="#FEF7FF"/>
<path d="M146.906 25.9948L151.5 23.224L156.094 26.0312L154.89 20.7812L158.937 17.2812L153.614 16.8073L151.5 11.849L149.385 16.7708L144.062 17.2448L148.109 20.7812L146.906 25.9948ZM142.495 32.0833L144.864 21.8385L136.917 14.9479L147.417 14.0365L151.5 4.375L155.583 14.0365L166.083 14.9479L158.135 21.8385L160.505 32.0833L151.5 26.651L142.495 32.0833Z" fill="#FEF7FF"/>
</svg>
