<svg width="170" height="28" viewBox="0 0 170 28" fill="none" xmlns="http://www.w3.org/2000/svg">
<path d="M5.57812 27.7083L7.94792 17.4635L0 10.5729L10.5 9.66146L14.5833 0L18.6667 9.66146L29.1667 10.5729L21.2187 17.4635L23.5885 27.7083L14.5833 22.276L5.57812 27.7083Z" fill="white"/>
<path d="M40.5781 27.7083L42.9479 17.4635L35 10.5729L45.5 9.66146L49.5833 0L53.6667 9.66146L64.1667 10.5729L56.2187 17.4635L58.5885 27.7083L49.5833 22.276L40.5781 27.7083Z" fill="white"/>
<path d="M75.5781 27.7083L77.9479 17.4635L70 10.5729L80.5 9.66146L84.5833 0L88.6667 9.66146L99.1667 10.5729L91.2187 17.4635L93.5885 27.7083L84.5833 22.276L75.5781 27.7083Z" fill="white"/>
<path d="M145.578 27.7083L147.948 17.4635L140 10.5729L150.5 9.66146L154.583 0L158.667 9.66146L169.167 10.5729L161.219 17.4635L163.589 27.7083L154.583 22.276L145.578 27.7083Z" fill="white"/>
<path d="M110.578 27.7083L112.948 17.4635L105 10.5729L115.5 9.66146L119.583 0L123.667 9.66146L134.167 10.5729L126.219 17.4635L128.589 27.7083L119.583 22.276L110.578 27.7083Z" fill="white"/>
</svg>
