<svg width="60" height="54" viewBox="0 0 60 54" fill="none" xmlns="http://www.w3.org/2000/svg">
<path d="M59.501 17.4536C59.501 8.9029 53.9012 1 44.3681 1C39.035 1 32.2352 6.21462 30.3019 6.21462C28.3687 6.21462 22.2022 1.19433 16.869 1.19433C12.5633 1.32147 8.48277 3.09302 5.51254 6.1247C2.54232 9.15639 0.921946 13.2037 1.00289 17.3888C1.00289 28.6278 26.6021 51.3972 26.6021 51.3972C27.0618 51.9011 27.6263 52.3046 28.2584 52.5808C28.8904 52.8571 29.5756 53 30.2686 53C30.9616 53 31.6468 52.8571 32.2788 52.5808C32.9109 52.3046 33.4754 51.9011 33.9351 51.3972C33.9351 51.3972 59.501 28.5306 59.501 17.4536Z" fill="white" stroke="white" stroke-miterlimit="10"/>
</svg>
