<svg width="60" height="56" viewBox="0 0 60 56" fill="none" xmlns="http://www.w3.org/2000/svg">
<path d="M59.501 17.9328C59.501 9.13307 53.9012 1 44.3681 1C39.035 1 32.2352 6.36649 30.3019 6.36649C28.3687 6.36649 22.2022 1.19999 16.869 1.19999C12.5633 1.33083 8.48277 3.15397 5.51254 6.27395C2.54232 9.39394 0.921946 13.5591 1.00289 17.8661C1.00289 29.4324 26.6021 52.865 26.6021 52.865C27.0618 53.3836 27.6263 53.7988 28.2584 54.0831C28.8904 54.3674 29.5756 54.5144 30.2686 54.5144C30.9616 54.5144 31.6468 54.3674 32.2788 54.0831C32.9109 53.7988 33.4754 53.3836 33.9352 52.865C33.9352 52.865 59.501 29.3324 59.501 17.9328Z" fill="#DC97F9" stroke="#DC97F9" stroke-miterlimit="10"/>
</svg>
