<?xml version="1.0" encoding="UTF-8"?>
<svg id="Calque_1" xmlns="http://www.w3.org/2000/svg" viewBox="0 0 306.3 65.23">
  <defs>
    <style>
      .cls-1, .cls-2 {
        fill: #fff;
      }

      .cls-2 {
        font-family: DolceVitaHeavy-Bold, 'Dolce Vita Heavy';
        font-size: 48px;
        font-weight: 700;
      }
    </style>
  </defs>
  <text class="cls-2" transform="translate(87.75 56.89)"><tspan x="0" y="0">CineManu</tspan></text>
  <path class="cls-1" d="M47.79,44.74l.42,6.52,3.7.37v-2.89c0,.73-.59,1.33-1.32,1.33s-1.33-.6-1.33-1.33.59-1.32,1.33-1.32,1.32.59,1.32,1.32v-4h-4.12ZM47.79,44.74v6.89h4.12v-2.89c0,.73-.59,1.33-1.32,1.33s-1.33-.6-1.33-1.33.59-1.32,1.33-1.32,1.32.59,1.32,1.32v-4h-4.12ZM47.79,44.74v6.89h4.12v-2.89c0,.73-.59,1.33-1.32,1.33s-1.33-.6-1.33-1.33.59-1.32,1.33-1.32,1.32.59,1.32,1.32v-4h-4.12ZM47.79,44.74v6.89h4.12v-2.89c0,.73-.59,1.33-1.32,1.33s-1.33-.6-1.33-1.33.59-1.32,1.33-1.32,1.32.59,1.32,1.32v-4h-4.12ZM47.79,44.74v6.89h4.12v-2.89c0,.73-.59,1.33-1.32,1.33s-1.33-.6-1.33-1.33.59-1.32,1.33-1.32,1.32.59,1.32,1.32v-4h-4.12ZM47.79,44.74v6.89h4.12v-2.89c0,.73-.59,1.33-1.32,1.33s-1.33-.6-1.33-1.33.59-1.32,1.33-1.32,1.32.59,1.32,1.32v-4h-4.12ZM47.79,44.74v6.89h4.12v-2.89c0,.73-.59,1.33-1.32,1.33s-1.33-.6-1.33-1.33.59-1.32,1.33-1.32,1.32.59,1.32,1.32v-4h-4.12ZM47.79,44.74v6.89h4.12v-2.89c0,.73-.59,1.33-1.32,1.33s-1.33-.6-1.33-1.33.59-1.32,1.33-1.32,1.32.59,1.32,1.32v-4h-4.12ZM47.79,44.74v6.89h4.12v-2.89c0,.73-.59,1.33-1.32,1.33s-1.33-.6-1.33-1.33.59-1.32,1.33-1.32,1.32.59,1.32,1.32v-4h-4.12ZM47.79,44.74v6.89h4.12v-2.89c0,.73-.59,1.33-1.32,1.33s-1.33-.6-1.33-1.33.59-1.32,1.33-1.32,1.32.59,1.32,1.32v-4h-4.12ZM47.79,44.74v6.89h4.12v-2.89c0,.73-.59,1.33-1.32,1.33s-1.33-.6-1.33-1.33.59-1.32,1.33-1.32,1.32.59,1.32,1.32v-4h-4.12ZM47.79,44.74v6.89h4.12v-2.89c0,.73-.59,1.33-1.32,1.33s-1.33-.6-1.33-1.33.59-1.32,1.33-1.32,1.32.59,1.32,1.32v-4h-4.12ZM47.79,44.74v6.89h4.12v-2.89c0,.73-.59,1.33-1.32,1.33s-1.33-.6-1.33-1.33.59-1.32,1.33-1.32,1.32.59,1.32,1.32v-4h-4.12ZM47.79,44.74v6.89h4.12v-2.89c0,.73-.59,1.33-1.32,1.33s-1.33-.6-1.33-1.33.59-1.32,1.33-1.32,1.32.59,1.32,1.32v-4h-4.12ZM58.03,29.98H17.19c-.43,1.21-1.59,2.08-2.95,2.08-1.27,0-2.37-.75-2.86-1.84-.48.27-.8.79-.8,1.39v4.39s9.5-.15,9.95-.02c.46.13,1.15.36,1.3,1.37.14,1.01,0,6.8,0,6.8h-1.3l-.07-6.53-.02-.36-9.86.04v20.03c0,.9.73,1.63,1.63,1.63h45.82c.89,0,1.62-.73,1.62-1.63v-25.72c0-.9-.73-1.63-1.62-1.63ZM20.8,57.81h-6.08c-2.26,0-2.17-1.57-2.17-1.57v-11.15h1.69v11.19l6.56.04v1.49ZM38.16,52.36c-1.71,0-3.1-1.39-3.1-3.1s1.39-3.11,3.1-3.11,3.11,1.39,3.11,3.11-1.39,3.1-3.11,3.1ZM53.41,52.88h-6.54v-1.25l-.1-7.16v-.5l6.64-.13v9.04ZM51.91,48.74c0,.73-.59,1.33-1.32,1.33s-1.33-.6-1.33-1.33.59-1.32,1.33-1.32,1.32.59,1.32,1.32v-4h-4.12v6.89h4.12v-2.89ZM47.79,44.74v6.89h4.12v-2.89c0,.73-.59,1.33-1.32,1.33s-1.33-.6-1.33-1.33.59-1.32,1.33-1.32,1.32.59,1.32,1.32v-4h-4.12ZM47.79,44.74v6.89h4.12v-2.89c0,.73-.59,1.33-1.32,1.33s-1.33-.6-1.33-1.33.59-1.32,1.33-1.32,1.32.59,1.32,1.32v-4h-4.12ZM47.79,44.74v6.89h4.12v-2.89c0,.73-.59,1.33-1.32,1.33s-1.33-.6-1.33-1.33.59-1.32,1.33-1.32,1.32.59,1.32,1.32v-4h-4.12ZM47.79,44.74v6.89h4.12v-2.89c0,.73-.59,1.33-1.32,1.33s-1.33-.6-1.33-1.33.59-1.32,1.33-1.32,1.32.59,1.32,1.32v-4h-4.12ZM47.79,44.74v6.89h4.12v-2.89c0,.73-.59,1.33-1.32,1.33s-1.33-.6-1.33-1.33.59-1.32,1.33-1.32,1.32.59,1.32,1.32v-4h-4.12ZM47.79,44.74v6.89h4.12v-2.89c0,.73-.59,1.33-1.32,1.33s-1.33-.6-1.33-1.33.59-1.32,1.33-1.32,1.32.59,1.32,1.32v-4h-4.12ZM47.79,44.74v6.89h4.12v-2.89c0,.73-.59,1.33-1.32,1.33s-1.33-.6-1.33-1.33.59-1.32,1.33-1.32,1.32.59,1.32,1.32v-4h-4.12ZM47.79,44.74v6.89h4.12v-2.89c0,.73-.59,1.33-1.32,1.33s-1.33-.6-1.33-1.33.59-1.32,1.33-1.32,1.32.59,1.32,1.32v-4h-4.12ZM47.79,44.74v6.89h4.12v-2.89c0,.73-.59,1.33-1.32,1.33s-1.33-.6-1.33-1.33.59-1.32,1.33-1.32,1.32.59,1.32,1.32v-4h-4.12ZM47.79,44.74v6.89h4.12v-2.89c0,.73-.59,1.33-1.32,1.33s-1.33-.6-1.33-1.33.59-1.32,1.33-1.32,1.32.59,1.32,1.32v-4h-4.12ZM47.79,44.74v6.89h4.12v-2.89c0,.73-.59,1.33-1.32,1.33s-1.33-.6-1.33-1.33.59-1.32,1.33-1.32,1.32.59,1.32,1.32v-4h-4.12ZM47.79,44.74v6.89h4.12v-2.89c0,.73-.59,1.33-1.32,1.33s-1.33-.6-1.33-1.33.59-1.32,1.33-1.32,1.32.59,1.32,1.32v-4h-4.12ZM47.79,44.74l.42,6.52v.05l3.7.32v-2.89c0,.73-.59,1.33-1.32,1.33s-1.33-.6-1.33-1.33.59-1.32,1.33-1.32,1.32.59,1.32,1.32v-4h-4.12ZM47.79,44.74v6.89h4.12v-2.89c0,.73-.59,1.33-1.32,1.33s-1.33-.6-1.33-1.33.59-1.32,1.33-1.32,1.32.59,1.32,1.32v-4h-4.12Z"/>
  <path class="cls-1" d="M25.98,14.77c-2.39-4.18-6.9-6.99-12.06-6.99C6.23,7.78,0,14.01,0,21.7c0,6.53,4.5,12.01,10.58,13.5,1.07.27,2.19.41,3.34.41,4.58,0,8.64-2.21,11.17-5.63,1.02-1.37,1.79-2.91,2.24-4.6h0c.33-1.18.5-2.41.5-3.68,0-2.53-.67-4.89-1.85-6.93ZM14.24,32.06c-1.27,0-2.37-.75-2.86-1.84-.19-.4-.29-.84-.29-1.31,0-1.74,1.41-3.15,3.15-3.15s3.14,1.41,3.14,3.15c0,.38-.07.74-.19,1.07-.43,1.21-1.59,2.08-2.95,2.08ZM7.94,28.49c-1.74,0-3.15-1.41-3.15-3.15s1.41-3.15,3.15-3.15,3.15,1.41,3.15,3.15-1.41,3.15-3.15,3.15ZM17.38,14.04c0,1.74-1.41,3.15-3.14,3.15s-3.15-1.41-3.15-3.15,1.41-3.15,3.15-3.15,3.14,1.41,3.14,3.15ZM7.94,14.72c1.74,0,3.15,1.41,3.15,3.15s-1.41,3.15-3.15,3.15-3.15-1.41-3.15-3.15,1.41-3.15,3.15-3.15ZM17.38,25.34c0-1.74,1.41-3.15,3.15-3.15s3.15,1.41,3.15,3.15-1.41,3.15-3.15,3.15-3.15-1.41-3.15-3.15ZM20.53,21.02c-1.74,0-3.15-1.41-3.15-3.15s1.41-3.15,3.15-3.15,3.15,1.41,3.15,3.15-1.41,3.15-3.15,3.15Z"/>
  <path class="cls-1" d="M45.61,0c-8.41,0-15.33,6.34-16.26,14.5v.04c-.07.6-.11,1.21-.11,1.83,0,2.88.74,5.59,2.05,7.94,1.27,2.28,3.06,4.22,5.22,5.67,2.6,1.74,5.73,2.76,9.1,2.76s6.5-1.02,9.1-2.76c4.38-2.94,7.27-7.94,7.27-13.61C61.98,7.33,54.65,0,45.61,0ZM52.9,23.99c-1.81,0-3.27-1.46-3.27-3.27s1.46-3.28,3.27-3.28,3.28,1.47,3.28,3.28-1.47,3.27-3.28,3.27ZM37.88,23.99c-1.81,0-3.28-1.47-3.28-3.27s1.47-3.28,3.28-3.28,3.27,1.47,3.27,3.28-1.46,3.27-3.27,3.27ZM37.62,8.57c1.81,0,3.28,1.47,3.28,3.28s-1.47,3.27-3.28,3.27-3.27-1.47-3.27-3.27,1.46-3.28,3.27-3.28ZM56.25,11.85c0,1.8-1.47,3.27-3.28,3.27s-3.27-1.47-3.27-3.27,1.47-3.28,3.27-3.28,3.28,1.47,3.28,3.28ZM48.88,7.62c0,1.81-1.46,3.27-3.27,3.27s-3.28-1.46-3.28-3.27,1.47-3.28,3.28-3.28,3.27,1.47,3.27,3.28ZM48.56,25.34c0,1.81-1.47,3.27-3.28,3.27s-3.27-1.46-3.27-3.27,1.46-3.28,3.27-3.28,3.28,1.47,3.28,3.28Z"/>
  <path class="cls-1" d="M13.92,9.72c-6.62,0-11.99,5.36-11.99,11.98,0,5.46,3.66,10.07,8.65,11.5,1.06.32,2.18.48,3.34.48,3.4,0,6.47-1.42,8.66-3.7,2.06-2.14,3.32-5.07,3.32-8.28,0-6.62-5.37-11.98-11.98-11.98ZM20.53,14.72c1.74,0,3.15,1.41,3.15,3.15s-1.41,3.15-3.15,3.15-3.15-1.41-3.15-3.15,1.41-3.15,3.15-3.15ZM14.24,10.89c1.73,0,3.14,1.41,3.14,3.15s-1.41,3.15-3.14,3.15-3.15-1.41-3.15-3.15,1.41-3.15,3.15-3.15ZM7.94,14.72c1.74,0,3.15,1.41,3.15,3.15s-1.41,3.15-3.15,3.15-3.15-1.41-3.15-3.15,1.41-3.15,3.15-3.15ZM7.94,28.49c-1.74,0-3.15-1.41-3.15-3.15s1.41-3.15,3.15-3.15,3.15,1.41,3.15,3.15-1.41,3.15-3.15,3.15ZM14.24,32.06c-1.27,0-2.37-.75-2.86-1.84-.19-.4-.29-.84-.29-1.31,0-1.74,1.41-3.15,3.15-3.15s3.14,1.41,3.14,3.15c0,.38-.07.74-.19,1.07-.43,1.21-1.59,2.08-2.95,2.08ZM20.53,28.49c-1.74,0-3.15-1.41-3.15-3.15s1.41-3.15,3.15-3.15,3.15,1.41,3.15,3.15-1.41,3.15-3.15,3.15Z"/>
  <path class="cls-1" d="M45.61,2c-7.94,0-14.37,6.43-14.37,14.37,0,6.33,4.09,11.7,9.77,13.61,1.44.49,2.99.76,4.6.76s3.16-.27,4.61-.76c5.67-1.92,9.76-7.28,9.76-13.61,0-7.94-6.44-14.37-14.37-14.37ZM52.97,8.57c1.81,0,3.28,1.47,3.28,3.28s-1.47,3.27-3.28,3.27-3.27-1.47-3.27-3.27,1.47-3.28,3.27-3.28ZM45.61,4.34c1.81,0,3.27,1.47,3.27,3.28s-1.46,3.27-3.27,3.27-3.28-1.46-3.28-3.27,1.47-3.28,3.28-3.28ZM45.28,22.06c1.81,0,3.28,1.47,3.28,3.28s-1.47,3.27-3.28,3.27-3.27-1.46-3.27-3.27,1.46-3.28,3.27-3.28ZM37.62,8.57c1.81,0,3.28,1.47,3.28,3.28s-1.47,3.27-3.28,3.27-3.27-1.47-3.27-3.27,1.46-3.28,3.27-3.28ZM37.88,23.99c-1.81,0-3.28-1.47-3.28-3.27s1.47-3.28,3.28-3.28,3.27,1.47,3.27,3.28-1.46,3.27-3.27,3.27ZM52.9,23.99c-1.81,0-3.27-1.46-3.27-3.27s1.46-3.28,3.27-3.28,3.28,1.47,3.28,3.28-1.47,3.27-3.28,3.27Z"/>
  <polygon class="cls-1" points="26.15 14.72 29.23 14.04 31.62 24.22 26.98 25.46 25.3 14.95 26.15 14.72"/>
  <path class="cls-1" d="M11.99,37.69v4.79h-3.64s-.64,2.24-2.05,1.53l-3.63-7.39s1.28-.84,5.27,1.07h4.05Z"/>
  <path class="cls-1" d="M51.91,44.74v4c0-.73-.59-1.32-1.32-1.32s-1.33.59-1.33,1.32.59,1.33,1.33,1.33,1.32-.6,1.32-1.33v2.89h-4.12v-6.89h4.12Z"/>
  <path class="cls-1" d="M60.73,33.68v12.98h4.09s8.51,6.21,8.51,5.7v-23.75l-7.74,5.07h-4.85Z"/>
</svg>